HIERARCHY
ROOT Hips
{
	OFFSET 0.00000 0.00000 0.00000
	CHANNELS 6 Xposition Yposition Zposition Zrotation Yrotation Xrotation 
	JOINT LHipJoint
	{
		OFFSET 0 0 0
		CHANNELS 3 Zrotation Yrotation Xrotation
		JOINT LeftHip
		{
			OFFSET 1.56857 -1.73443 1.15205
			CHANNELS 3 Zrotation Yrotation Xrotation
			JOINT LeftKnee
			{
				OFFSET 2.39362 -6.57643 0.00000
				CHANNELS 3 Zrotation Yrotation Xrotation
				JOINT LeftAnkle
				{
					OFFSET 2.50952 -6.89485 0.00000
					CHANNELS 3 Zrotation Yrotation Xrotation
					JOINT LeftToe
					{
						OFFSET 0.17171 -0.47178 1.88682
						CHANNELS 3 Zrotation Yrotation Xrotation
						End Site
						{
							OFFSET 0.00000 -0.00000 0.98146
						}
					}
				}
			}
		}
	}
	JOINT RHipJoint
	{
		OFFSET 0 0 0
		CHANNELS 3 Zrotation Yrotation Xrotation
		JOINT RightHip
		{
			OFFSET -1.28153 -1.73443 1.15205
			CHANNELS 3 Zrotation Yrotation Xrotation
			JOINT RightKnee
			{
				OFFSET -2.26861 -6.23296 0.00000
				CHANNELS 3 Zrotation Yrotation Xrotation
				JOINT RightAnkle
				{
					OFFSET -2.54143 -6.98254 0.00000
					CHANNELS 3 Zrotation Yrotation Xrotation
					JOINT RightToe
					{
						OFFSET -0.23309 -0.64041 1.93119
						CHANNELS 3 Zrotation Yrotation Xrotation
						End Site
						{
							OFFSET -0.00000 -0.00000 1.02013
						}
					}
				}
			}
		}
	}
	JOINT lowerback
	{
		OFFSET 0 0 0
		CHANNELS 3 Zrotation Yrotation Xrotation
		JOINT Chest
		{
			OFFSET -0.07096 2.10460 -0.27878
			CHANNELS 3 Zrotation Yrotation Xrotation
			JOINT Chest2
			{
				OFFSET -0.00826 2.13662 -0.08279
				CHANNELS 3 Zrotation Yrotation Xrotation
				JOINT lowerneck
				{
					OFFSET 0 0 0
					CHANNELS 3 Zrotation Yrotation Xrotation
					JOINT Neck
					{
						OFFSET 0.03239 1.77799 0.24435
						CHANNELS 3 Zrotation Yrotation Xrotation
						JOINT Head
						{
							OFFSET 0.01026 1.74194 -0.49664
							CHANNELS 3 Zrotation Yrotation Xrotation
							End Site
							{
								OFFSET 0.00170 1.83057 -0.19653
							}
						}
					}
				}
				JOINT LeftCollar
				{
					OFFSET 0 0 0
					CHANNELS 3 Zrotation Yrotation Xrotation
					JOINT LeftShoulder
					{
						OFFSET 3.19178 1.35907 -0.31412
CHANNELS 3 Zrotation Xrotation Yrotation
						JOINT LeftElbow
						{
OFFSET 0 -4.852470 -0.000000
CHANNELS 3 Zrotation Xrotation Yrotation
							JOINT LeftWrist
							{
OFFSET 0 -3.555840 0.000000
CHANNELS 3 Zrotation Xrotation Yrotation
								JOINT lhand
								{
									OFFSET 0 0 0
CHANNELS 3 Zrotation Xrotation Yrotation
									JOINT LFingers
									{
OFFSET 0 -0.693200 0.000000
CHANNELS 3 Zrotation Xrotation Yrotation
										End Site
										{
OFFSET 0 -0.558880 0.000000
										}
									}
								}
								JOINT LThumb
								{
OFFSET 0 0.000000 0.000000
CHANNELS 3 Zrotation Xrotation Yrotation
									End Site
									{
OFFSET 0 -0.567410 0.567410
									}
								}
							}
						}
					}
				}
				JOINT RightCollar
				{
					OFFSET 0 0 0
					CHANNELS 3 Zrotation Yrotation Xrotation
					JOINT RightShoulder
					{
						OFFSET -3.28999 1.24191 -0.26899
CHANNELS 3 Zrotation Xrotation Yrotation
						JOINT RightElbow
						{
OFFSET 0 -4.644620 0.000000
CHANNELS 3 Zrotation Xrotation Yrotation
							JOINT RightWrist
							{
OFFSET 0 -3.407030 0.000000
CHANNELS 3 Zrotation Xrotation Yrotation
								JOINT rhand
								{
									OFFSET 0 0 0
CHANNELS 3 Zrotation Xrotation Yrotation
									JOINT RFingers
									{
OFFSET 0 -0.619580 0.000000
CHANNELS 3 Zrotation Xrotation Yrotation
										End Site
										{
OFFSET 0 -0.499520 0.000000
										}
									}
								}
								JOINT RThumb
								{
OFFSET 0 0.000000 0.000000
CHANNELS 3 Zrotation Xrotation Yrotation
									End Site
									{
OFFSET 0 -0.507150 0.507150
									}
								}
							}
						}
					}
				}
			}
		}
	}
}
MOTION
Frames: 12
Frame Time: 0.008333333333333333
14.068294 16.074194 0.299412 317.585845 76.870089 316.917023 0.000000 0.000000 0.000000 -3.375037 -2.160924 -31.041915 3.704784 11.756000 34.875266 0.424569 1.022533 -12.722587 1.271135 -7.145717 -20.147928 0.000000 0.000000 0.000000 27.717668 -5.501957 21.309343 -0.968111 -6.245661 17.504825 -1.355802 11.152620 -21.089878 -0.577834 4.866996 -13.529791 6.291907 5.259983 11.101341 0.457084 7.798769 5.402232 -3.798226 4.115609 0.249616 3.469734 -1.069887 -23.410214 -0.507011 -2.314093 30.278616 -1.190157 -0.481657 14.262116 0.000000 0.000000 0.000000 15.362285 31.666549 -44.333790 26.592866 -37.787688 9.248773 28.837074 -31.901420 19.679364 0.000000 0.000000 0.000000 -7.125000 0.000000 0.000000 0.307297 7.771822 0.261244 0.000000 0.000000 0.000000 -10.031428 -8.501592 59.857054 -79.777165 -59.597535 -51.158908 -29.705709 -3.759506 22.190800 0.000000 0.000000 0.000000 7.125000 0.000000 0.000000 -0.891818 55.132917 0.220655
14.296283 16.058358 0.291480 317.036811 77.018654 316.440359 0.000000 0.000000 0.000000 -3.754091 -2.033295 -30.387891 3.655258 11.685875 34.631017 0.360982 1.948882 -12.236529 1.257728 -7.109386 -20.039868 0.000000 0.000000 0.000000 27.862422 -5.106034 20.818333 -1.233493 -7.027272 19.802864 -1.220416 10.679514 -20.003124 -0.605909 4.982524 -13.858752 6.293688 5.078626 11.007838 0.288686 7.547108 5.259222 -3.953022 3.982328 0.146770 3.500720 -1.043599 -23.165345 -0.167368 -2.393598 30.112356 -1.068363 -0.467215 14.142446 0.000000 0.000000 0.000000 15.258814 31.364218 -43.907610 26.320186 -37.522896 9.082132 29.465116 -32.268732 19.059927 0.000000 0.000000 0.000000 -7.125000 0.000000 0.000000 0.787509 8.338046 0.663020 0.000000 0.000000 0.000000 -9.747938 -7.752179 60.126735 -81.247206 -59.707418 -52.427328 -30.241849 -4.053712 21.916072 0.000000 0.000000 0.000000 7.125000 0.000000 0.000000 -1.534949 54.944608 0.374784
14.518600 16.049903 0.282603 317.496351 77.577732 316.928943 0.000000 0.000000 0.000000 -4.655507 -2.029098 -30.320280 3.841794 11.946519 35.543657 0.345917 2.584047 -12.363103 1.273979 -7.153050 -20.169834 0.000000 0.000000 0.000000 27.485957 -4.756971 20.126155 -1.564376 -7.888412 22.378051 -1.053388 10.190887 -18.612528 -0.613909 5.014722 -13.950583 5.877508 4.870203 10.938593 0.000416 7.219238 5.217342 -3.994539 3.810343 0.087750 3.509780 -0.995942 -23.025129 0.181417 -2.447364 29.816918 -0.936036 -0.449579 13.991099 0.000000 0.000000 0.000000 15.151204 30.776782 -43.585791 26.083845 -37.291277 8.938457 30.081794 -32.788034 18.274105 0.000000 0.000000 0.000000 -7.125000 0.000000 0.000000 1.284108 9.096382 1.064962 0.000000 0.000000 0.000000 -9.435797 -7.065984 60.263608 -82.272309 -59.773058 -53.312705 -30.311343 -4.442797 21.698789 0.000000 0.000000 0.000000 7.125000 0.000000 0.000000 -1.655659 54.718770 0.395373
14.733760 16.052184 0.273805 320.476491 78.487905 319.811321 0.000000 0.000000 0.000000 -6.208390 -2.472698 -30.080272 4.081232 12.266367 36.682839 0.370683 2.576226 -12.735824 1.142651 -6.785951 -19.083688 0.000000 0.000000 0.000000 26.369260 -4.317119 19.248977 -2.018566 -8.891297 25.464671 -0.860143 9.913322 -16.909579 -0.580832 4.879890 -13.566456 4.830712 4.706124 10.907391 -0.431778 6.894014 5.320319 -3.833474 3.638280 0.102170 3.522652 -0.894839 -23.105620 0.516744 -2.435469 29.515645 -0.801531 -0.406971 13.886818 0.000000 0.000000 0.000000 15.071446 29.760455 -43.550108 25.769863 -36.980228 8.748960 30.780392 -33.820248 17.783986 0.000000 0.000000 0.000000 -7.125000 0.000000 0.000000 1.798912 9.515215 1.476707 0.000000 0.000000 0.000000 -9.169556 -6.395738 60.359171 -82.844792 -59.805401 -53.807467 -30.247960 -4.919636 21.552145 0.000000 0.000000 0.000000 7.125000 0.000000 0.000000 -1.617043 54.542879 0.379242
14.948920 16.062392 0.260810 324.962706 79.482275 324.183120 0.000000 0.000000 0.000000 -8.058691 -3.171284 -29.606992 4.286765 12.531128 37.639907 0.415366 2.595516 -13.395972 1.024312 -6.434704 -18.052363 0.000000 0.000000 0.000000 24.879075 -3.914569 18.087637 -2.527977 -9.867337 28.566346 -0.609080 9.238821 -14.325166 -0.475550 4.410738 -12.237185 3.661018 4.558565 10.816771 -0.926386 6.583976 5.464862 -3.659021 3.475543 0.194592 3.556640 -0.789872 -23.221749 0.744094 -2.391069 29.224697 -0.708990 -0.363496 13.792796 0.000000 0.000000 0.000000 15.012670 28.530906 -43.617338 25.420111 -36.629546 8.539613 31.460738 -34.871979 17.675949 0.000000 0.000000 0.000000 -7.125000 0.000000 0.000000 2.253032 9.506471 1.851816 0.000000 0.000000 0.000000 -8.956005 -5.593868 60.314918 -83.175478 -59.823157 -54.093270 -30.295817 -5.228681 21.861053 0.000000 0.000000 0.000000 7.125000 0.000000 0.000000 -1.604871 54.895279 0.390088
15.163839 16.079368 0.244955 330.252202 80.446960 329.366025 0.000000 0.000000 0.000000 -10.005431 -3.897130 -28.849212 4.408239 12.684555 38.199070 0.468339 2.668789 -14.170188 0.985991 -6.320231 -17.716436 0.000000 0.000000 0.000000 23.297984 -3.552842 16.719681 -3.096728 -10.827101 31.723545 -0.340409 8.088784 -10.815578 -0.245740 2.877043 -7.958401 2.555503 4.400026 10.717417 -1.444099 6.273961 5.619348 -3.540239 3.315223 0.319557 3.598271 -0.684477 -23.301208 0.946687 -2.336436 28.910377 -0.626051 -0.319156 13.681205 0.000000 0.000000 0.000000 14.959488 27.183551 -43.626654 25.098152 -36.303582 8.348195 31.971089 -35.597560 17.757904 0.000000 0.000000 0.000000 -7.125000 0.000000 0.000000 2.571494 9.313742 2.124083 0.000000 0.000000 0.000000 -8.798968 -4.757542 60.196638 -83.116052 -59.820013 -54.041915 -30.550423 -5.236051 22.495293 0.000000 0.000000 0.000000 7.125000 0.000000 0.000000 -1.748608 55.653278 0.459408
15.376937 16.102269 0.228445 335.669441 81.266145 334.675821 0.000000 0.000000 0.000000 -11.838033 -4.444615 -27.768361 4.414125 12.691635 38.225382 0.518781 2.742964 -14.878952 1.014109 -6.406466 -17.968551 0.000000 0.000000 0.000000 21.889888 -3.139991 15.244487 -3.712198 -11.750879 34.877848 -0.120294 6.695176 -7.036825 -0.039953 0.812569 -2.235228 1.612673 4.236947 10.662660 -1.922300 5.981938 5.779740 -3.474514 3.166512 0.447594 3.621520 -0.588483 -23.362418 1.150112 -2.285378 28.598764 -0.540648 -0.278012 13.567496 0.000000 0.000000 0.000000 14.901385 25.741199 -43.595559 24.817197 -36.016261 8.182320 32.279605 -35.959058 17.941868 0.000000 0.000000 0.000000 -7.125000 0.000000 0.000000 2.744808 9.042870 2.282087 0.000000 0.000000 0.000000 -8.714031 -3.891467 60.046422 -82.702994 -59.797346 -53.684954 -30.907053 -5.166380 23.147428 0.000000 0.000000 0.000000 7.125000 0.000000 0.000000 -2.000685 56.454499 0.563086
15.587193 16.130318 0.212930 340.645805 81.872198 339.519361 0.000000 0.000000 0.000000 -13.403127 -4.654952 -26.348759 4.289625 12.535088 37.653761 0.557640 2.732646 -15.364216 1.056909 -6.536650 -18.349658 0.000000 0.000000 0.000000 20.826757 -2.603942 13.757667 -4.356801 -12.613935 37.950628 -0.003587 5.329848 -3.692154 -0.037813 -1.000341 2.753493 0.869989 4.084403 10.690938 -2.299959 5.729482 5.954951 -3.425150 3.039984 0.563836 3.601543 -0.514595 -23.463304 1.332848 -2.243828 28.340975 -0.458525 -0.246645 13.484884 0.000000 0.000000 0.000000 14.821809 24.195399 -43.617105 24.569535 -35.760634 8.037044 32.421367 -36.032779 18.149278 0.000000 0.000000 0.000000 -7.125000 0.000000 0.000000 2.806658 8.777626 2.348394 0.000000 0.000000 0.000000 -8.723009 -2.964552 59.883737 -82.038913 -59.758701 -53.111148 -31.157113 -5.351662 23.547598 0.000000 0.000000 0.000000 7.125000 0.000000 0.000000 -2.190193 56.954289 0.641502
15.797873 16.163720 0.196148 345.014179 82.372011 343.692209 0.000000 0.000000 0.000000 -14.774904 -4.482319 -24.579087 4.033242 12.203753 36.457876 0.580859 2.545919 -15.545485 1.048844 -6.512616 -18.279106 0.000000 0.000000 0.000000 19.966525 -2.108121 12.283809 -5.029654 -13.412740 40.941685 0.034214 3.862508 -0.462881 -0.222014 -2.965213 8.185773 0.293921 3.935803 10.784383 -2.550314 5.501613 6.163838 -3.341970 2.927475 0.688321 3.534575 -0.479808 -23.674797 1.368694 -2.199672 28.196612 -0.426915 -0.236624 13.469975 0.000000 0.000000 0.000000 14.667344 22.507359 -43.798292 24.353153 -35.535372 7.910929 32.469923 -35.778269 18.177956 0.000000 0.000000 0.000000 -7.125000 0.000000 0.000000 2.833706 8.734937 2.373486 0.000000 0.000000 0.000000 -8.871690 -1.943092 59.665888 -81.119941 -59.699554 -52.317394 -30.998982 -5.970990 23.881051 0.000000 0.000000 0.000000 7.125000 0.000000 0.000000 -1.932832 57.286194 0.581622
16.008108 16.205775 0.178477 351.130147 82.882621 349.552746 0.000000 0.000000 0.000000 -16.310865 -4.119691 -22.667344 3.727160 11.784632 34.979033 0.592392 2.350613 -15.580615 1.047213 -6.507738 -18.264761 0.000000 0.000000 0.000000 18.869187 -1.762802 10.779777 -5.739116 -14.159405 43.903530 0.047832 3.946259 1.174772 -0.116676 -2.113966 5.824358 -0.482939 3.744604 10.894986 -2.783067 5.200896 6.369027 -3.123598 2.771258 0.780782 3.521078 -0.353314 -23.849165 1.278149 -1.998654 28.153495 -0.425183 -0.167512 13.488716 0.000000 0.000000 0.000000 14.325103 20.767993 -43.807456 24.133813 -35.305229 7.783854 32.386614 -35.262175 18.329549 0.000000 0.000000 0.000000 -7.125000 0.000000 0.000000 2.758620 8.579315 2.318927 0.000000 0.000000 0.000000 -9.216208 -1.047211 59.749487 -79.447426 -59.571480 -50.874524 -30.377734 -6.837111 24.768587 0.000000 0.000000 0.000000 7.125000 0.000000 0.000000 -0.987601 58.114126 0.310744
16.214252 16.255693 0.163544 358.992738 83.181494 357.213127 0.000000 0.000000 0.000000 -17.890551 -3.729229 -20.908999 3.446790 11.381590 33.582410 0.612549 2.159479 -15.722394 1.049172 -6.513617 -18.282064 0.000000 0.000000 0.000000 17.658862 -1.294705 9.121922 -6.477405 -14.862142 46.844338 0.058107 4.385108 2.497994 -0.034857 -0.997220 2.743146 -1.450685 3.594472 11.010325 -3.028387 4.930081 6.484605 -2.818884 2.621298 0.770391 3.506140 -0.196665 -23.906083 1.187513 -1.742515 28.178472 -0.412298 -0.071779 13.512705 0.000000 0.000000 0.000000 13.915289 19.086821 -43.695667 23.916278 -35.075310 7.658510 32.183936 -34.624898 18.837876 0.000000 0.000000 0.000000 -7.125000 0.000000 0.000000 2.555988 8.043918 2.174026 0.000000 0.000000 0.000000 -9.621246 -0.148123 59.983038 -77.241491 -59.366956 -48.974909 -29.752398 -7.775580 25.682976 0.000000 0.000000 0.000000 7.125000 0.000000 0.000000 0.007219 58.960519 -0.009724
16.416134 16.309704 0.151267 367.605162 83.195222 365.758940 0.000000 0.000000 0.000000 -19.445978 -3.396333 -19.437711 3.214376 11.032170 32.390743 0.646429 1.992852 -16.035302 1.034766 -6.469698 -18.153572 0.000000 0.000000 0.000000 16.414843 -0.656842 7.242255 -7.219669 -15.503782 49.682537 0.083755 5.197693 2.783018 -0.025431 -0.842797 2.317717 -2.523814 3.515957 11.061213 -3.282925 4.738039 6.504903 -2.472085 2.505142 0.697335 3.468935 -0.067930 -23.883280 1.116001 -1.516186 28.258173 -0.392856 0.013719 13.543419 0.000000 0.000000 0.000000 13.510987 17.451713 -43.594212 23.763008 -34.912584 7.570477 31.923567 -33.835284 19.467117 0.000000 0.000000 0.000000 -7.125000 0.000000 0.000000 2.299224 7.385676 1.985163 0.000000 0.000000 0.000000 -9.993094 0.821888 60.124196 -74.687322 -59.084123 -46.780572 -29.349023 -8.447525 26.339808 0.000000 0.000000 0.000000 7.125000 0.000000 0.000000 0.688345 59.574564 -0.245871
